<svg width="294" height="270" viewBox="0 0 294 270" fill="none" xmlns="http://www.w3.org/2000/svg">
<g clip-path="url(#clip0_8262_1178)">
<path d="M164.688 133.486H164.688V133.487H164.688V133.486Z" fill="url(#paint0_linear_8262_1178)"/>
<path d="M200.289 149.454L164.688 133.486L164.69 133.488L200.289 149.454Z" fill="url(#paint1_linear_8262_1178)"/>
<path d="M164.689 133.485L155.077 120.991L164.688 133.485H164.689Z" fill="url(#paint2_linear_8262_1178)"/>
<path d="M124.742 262.121L134.261 260.935V257.377L124.742 258.563V262.121Z" fill="url(#paint3_linear_8262_1178)"/>
<path d="M197.91 153.14V160.721L226.463 157.756L200.29 150.047V153.012L197.91 153.14Z" fill="url(#paint4_linear_8262_1178)"/>
<path d="M166.978 154.79L197.91 153.139L200.289 153.011V150.046V149.453L166.978 151.232V154.79Z" fill="url(#paint5_linear_8262_1178)"/>
<path d="M226.463 168.429L244.308 161.906L226.463 159.534V161.313V168.429Z" fill="url(#paint6_linear_8262_1178)"/>
<path d="M255.016 167.243H244.309V174.952L255.016 167.243Z" fill="url(#paint7_linear_8262_1178)"/>
<path d="M197.91 164.279L226.463 161.314V159.535V157.756L197.91 160.721V164.279Z" fill="url(#paint8_linear_8262_1178)"/>
<path d="M139.615 234.844H141.995H150.917V231.286H139.615V234.844Z" fill="url(#paint9_linear_8262_1178)"/>
<path d="M244.309 178.51L255.016 170.801V167.243L244.309 174.952V178.51Z" fill="url(#paint10_linear_8262_1178)"/>
<path d="M150.917 222.984H160.435V219.426H149.133V222.984H150.917Z" fill="url(#paint11_linear_8262_1178)"/>
<path d="M150.917 231.286V222.984H149.133V219.426L152.103 213.496H128.904L139.615 231.286H150.917Z" fill="url(#paint12_linear_8262_1178)"/>
<path d="M168.763 138.782V142.338H166.978V151.233L200.29 149.454L164.69 133.487L168.763 138.782Z" fill="url(#paint13_linear_8262_1178)"/>
<path d="M168.763 138.781H131.881V142.338H166.978H168.763V138.781Z" fill="url(#paint14_linear_8262_1178)"/>
<path d="M226.463 171.988L244.308 165.465V161.907L226.463 168.43V171.988Z" fill="url(#paint15_linear_8262_1178)"/>
<path d="M124.743 258.563L70.0166 245.642V249.2L124.743 262.121V258.563Z" fill="url(#paint16_linear_8262_1178)"/>
<path d="M141.995 245.517V243.738L131.881 227.135L95.5928 227.728L133.285 245.642L141.995 245.517Z" fill="url(#paint17_linear_8262_1178)"/>
<path d="M168.763 138.781L164.69 133.487H164.689L164.688 133.485L164.595 133.444L164.688 133.485L155.078 120.991H144.37L131.881 138.781H168.763Z" fill="url(#paint18_linear_8262_1178)"/>
<path d="M134.262 257.377L98.5694 240.181L70.0166 245.642L124.743 258.563L134.262 257.377Z" fill="url(#paint19_linear_8262_1178)"/>
<path d="M133.285 245.643L95.5928 227.729V231.286L133.285 249.201V245.643Z" fill="url(#paint20_linear_8262_1178)"/>
<path d="M134.262 249.186L133.285 249.2L95.5928 231.286L98.5694 232.702V240.181L134.262 257.378V249.186Z" fill="url(#paint21_linear_8262_1178)"/>
<path d="M141.995 234.843H139.615L128.904 217.054L131.881 221.999V227.135L141.995 243.738V234.843Z" fill="url(#paint22_linear_8262_1178)"/>
<path d="M133.284 249.2L134.261 249.186V249.185V249.186L141.994 249.075V245.518L133.284 245.642V249.2Z" fill="url(#paint23_linear_8262_1178)"/>
<path d="M214.562 176.731C200.761 172.937 177.087 166.454 166.974 163.686C173.042 170.372 175.679 176.544 176.639 182.661C177.466 187.94 177.045 193.18 176.496 198.672C175.546 208.16 168.168 220.612 165.19 225.356C164.041 227.189 159.077 234.147 153.419 242.001C154.27 241.969 182.437 223.577 190.174 219.426C197.91 215.275 206.829 209.346 228.839 203.416C250.848 197.486 254.424 193.335 255.016 192.149C251.45 187.998 231.813 181.475 214.562 176.731Z" fill="url(#paint24_linear_8262_1178)"/>
<path d="M255.016 170.802L244.308 178.511V174.953V167.244V165.465L226.463 171.988V168.43V161.314L197.91 164.279V160.721V153.139L166.978 154.791V151.233V142.339H131.881V138.781V130.915L99.7587 128.107V124.549V115.125L71.2059 110.91V107.352V98.2463V107.352L127.717 93.1205V85.4117L73.5603 99.0504L50.981 91.3415V87.7836V78.9825V87.7836L119.389 78.8888V71.1799L52.7656 80.6677L41.4635 69.994V66.436V59.3202L38.4892 51.6113C37.8944 61.0991 39.4386 83.9885 50.3838 99.6434C64.0653 119.212 99.1579 135.816 109.274 140.56C119.389 145.303 154.482 160.128 166.974 163.686C177.087 166.454 200.761 172.938 214.562 176.732C231.813 181.476 251.45 187.999 255.016 192.15C255.488 191.202 255.213 177.524 255.016 170.802Z" fill="url(#paint25_linear_8262_1178)"/>
<path d="M139.615 231.286L128.904 213.496V217.054L139.615 234.844V231.286Z" fill="url(#paint26_linear_8262_1178)"/>
<path d="M176.496 198.672C177.045 193.18 177.467 187.94 176.64 182.661L173.522 186.812H176.496V190.37H173.522V193.928V196.893V200.451H168.168L167.573 207.567V211.125H158.65V209.346H154.483L152.103 213.497L149.133 219.426H160.435V211.718V219.426V222.984H150.917V231.286V234.844H141.995V243.739V245.518V249.076L134.262 249.186V257.378V260.936L124.743 262.122L70.0166 249.199V257.378L125.338 270.423V262.048V270.423L133.663 269.237C133.663 269.237 144.423 254.487 153.419 242.001C159.077 234.147 164.041 227.189 165.19 225.356C168.168 220.612 175.546 208.16 176.496 198.672Z" fill="url(#paint27_linear_8262_1178)"/>
<path d="M41.4625 55.7626L38.4883 48.0537V51.6116L41.4625 59.3205V55.7626Z" fill="url(#paint28_linear_8262_1178)"/>
<path d="M115.817 41.5312L119.386 39.7523V36.1943L115.817 37.9733V41.5312Z" fill="url(#paint29_linear_8262_1178)"/>
<path d="M115.816 37.9741L38.4883 36.7881V40.346L115.816 41.532V37.9741Z" fill="url(#paint30_linear_8262_1178)"/>
<path d="M115.818 23.7413L51.5762 15.4395V18.9974L115.818 27.2992V23.7413Z" fill="url(#paint31_linear_8262_1178)"/>
<path d="M119.385 36.1948L114.034 35.0089L51.575 26.707L38.4883 36.7878L115.816 37.9738L119.385 36.1948Z" fill="url(#paint32_linear_8262_1178)"/>
<path d="M114.035 27.2999L51.5762 18.998V26.7069L114.035 35.0087V27.2999Z" fill="url(#paint33_linear_8262_1178)"/>
<path d="M125.335 20.7764L69.4193 7.1377C63.472 9.70771 51.5762 14.9651 51.5762 15.4395L115.818 23.7414L125.335 20.7764Z" fill="url(#paint34_linear_8262_1178)"/>
<path d="M118.197 55.1697L117.007 58.1346L114.63 58.1726V65.8434L117.008 66.7329L120.421 45.0889C119.565 47.3031 118.776 49.375 118.173 51.0187L118.197 55.1697Z" fill="url(#paint35_linear_8262_1178)"/>
<path d="M115.817 27.2992L125.335 24.3343V20.7764L115.817 23.7413V27.2992Z" fill="url(#paint36_linear_8262_1178)"/>
<path d="M114.035 49.2404L118.174 51.0194C118.777 49.3756 119.566 47.3037 120.422 45.0895C122.094 40.7666 124.025 35.9041 125.336 32.6368V24.3349L115.818 27.2999L51.5769 18.998L114.036 27.2999V35.0087L119.387 36.1947V39.7526L115.818 41.5316L38.4902 40.3456L114.036 41.5316V49.2404H114.035Z" fill="url(#paint37_linear_8262_1178)"/>
<path d="M173.522 200.451V196.893H168.168V199.858V200.451H173.522Z" fill="url(#paint38_linear_8262_1178)"/>
<path d="M41.4639 66.4367L52.766 77.1105L119.387 67.6227L117.009 66.7332L114.63 65.8438L41.4639 66.4367Z" fill="url(#paint39_linear_8262_1178)"/>
<path d="M173.522 193.927L168.168 196.892H173.522V193.927Z" fill="url(#paint40_linear_8262_1178)"/>
<path d="M168.168 200.45V199.857H165.19C163.011 202.229 158.65 207.093 158.65 207.566H167.573L168.168 200.45Z" fill="url(#paint41_linear_8262_1178)"/>
<path d="M176.496 186.812H173.521V190.37H176.496V186.812Z" fill="url(#paint42_linear_8262_1178)"/>
<path d="M114.034 41.5317L38.4883 40.3457V48.0545L114.034 49.2405V41.5317Z" fill="url(#paint43_linear_8262_1178)"/>
<path d="M117.006 54.5766C117.006 54.305 117.46 52.9613 118.172 51.0187L114.033 49.2397L38.4873 48.0537L41.4616 55.7626L117.006 54.5766Z" fill="url(#paint44_linear_8262_1178)"/>
<path d="M167.573 211.124V207.566H158.65V209.345V211.124H167.573Z" fill="url(#paint45_linear_8262_1178)"/>
<path d="M133.666 127.514L99.7588 124.549V128.107L131.881 130.915L133.666 131.072V127.514Z" fill="url(#paint46_linear_8262_1178)"/>
<path d="M101.543 115.389L136.042 98.4576V94.3066L101.543 111.238V115.389Z" fill="url(#paint47_linear_8262_1178)"/>
<path d="M101.543 111.238L71.2061 107.353V110.91L99.7588 115.124L101.543 115.389V111.238Z" fill="url(#paint48_linear_8262_1178)"/>
<path d="M99.7588 115.125V124.549L134.261 107.946V99.3321L136.042 98.458L101.543 115.389L99.7588 115.125Z" fill="url(#paint49_linear_8262_1178)"/>
<path d="M50.9814 87.7842V91.3421L73.5607 99.051V95.493L50.9814 87.7842Z" fill="url(#paint50_linear_8262_1178)"/>
<path d="M101.543 111.238L136.042 94.3071L127.717 93.1211L71.2061 107.353L101.543 111.238Z" fill="url(#paint51_linear_8262_1178)"/>
<path d="M131.881 130.916V138.782L144.37 120.992V113.096L133.667 131.073L131.881 130.916Z" fill="url(#paint52_linear_8262_1178)"/>
<path d="M133.666 131.072L144.37 113.095L144.965 112.096V108.538L133.666 127.514V131.072Z" fill="url(#paint53_linear_8262_1178)"/>
<path d="M133.666 127.514L144.965 108.538L134.261 107.945L99.7588 124.549L133.666 127.514Z" fill="url(#paint54_linear_8262_1178)"/>
<path d="M41.4639 66.4365V69.9945L52.766 80.6682V77.1103L41.4639 66.4365Z" fill="url(#paint55_linear_8262_1178)"/>
<path d="M114.63 58.1719L41.4639 59.3211V66.4369L114.63 65.844V58.1719Z" fill="url(#paint56_linear_8262_1178)"/>
<path d="M52.7656 80.6678L119.389 71.18V67.6221H119.386L52.7656 77.1099V80.6678Z" fill="url(#paint57_linear_8262_1178)"/>
<path d="M114.63 58.1348L41.4639 59.3207L114.63 58.1715V58.1348Z" fill="url(#paint58_linear_8262_1178)"/>
<path d="M73.5605 99.0511L127.717 85.4124V81.8545L73.5605 95.4932V99.0511Z" fill="url(#paint59_linear_8262_1178)"/>
<path d="M114.63 58.1718L117.007 58.1351V54.5771L41.4639 55.7631V59.3211L114.63 58.1351V58.1718Z" fill="url(#paint60_linear_8262_1178)"/>
<path d="M73.5607 95.4923L127.717 81.8536L119.389 78.8887L50.9814 87.7835L73.5607 95.4923Z" fill="url(#paint61_linear_8262_1178)"/>
<path d="M118.197 55.1695L118.173 51.0186C117.459 52.9612 117.007 54.3049 117.007 54.5765V58.1344L118.197 55.1695Z" fill="url(#paint62_linear_8262_1178)"/>
<path d="M129.835 264.986L74.5136 251.94V243.761M129.835 264.986V256.61M129.835 264.986L138.16 263.8C138.16 263.8 148.919 249.05 157.916 236.563M74.5136 243.761V240.203M74.5136 243.761L129.24 256.684M103.066 234.743L138.757 251.94M103.066 234.743V227.263M103.066 234.743L74.5136 240.203M138.757 251.94V243.748M138.757 251.94V255.498L129.24 256.684M138.757 251.94L129.24 253.126M136.378 221.698L146.491 238.301M136.378 221.698L100.089 222.291M136.378 221.698V216.562M146.491 238.301V229.407M146.491 238.301V240.08M104.256 119.111L138.757 102.507M104.256 119.111V109.687M104.256 119.111L138.163 122.076M104.256 119.111V122.669L136.378 125.478M138.757 102.507V93.8937M138.757 102.507L149.462 103.1M75.7033 101.914L132.214 87.6825M75.7033 101.914V92.8085M75.7033 101.914L106.041 105.799M75.7033 101.914V105.472L106.041 109.95M132.214 87.6825V79.9736M132.214 87.6825L140.539 88.8684M132.214 79.9736L78.0579 93.6123M132.214 79.9736V76.4157M55.4784 82.3456L123.886 73.4508M55.4784 82.3456V73.5444M55.4784 82.3456L78.0579 90.0544M55.4784 82.3456V85.9035L78.0579 93.6123M123.886 73.4508V65.7419M123.886 73.4508L132.214 76.4157M123.886 65.7419V62.184H123.883M123.886 65.7419L57.2629 75.2297M45.9608 60.998L119.127 60.405M45.9608 60.998V53.8822M45.9608 60.998L57.2629 71.6718M45.9608 60.998V64.5559L57.2629 75.2297M119.127 60.405V52.6962L45.9608 53.8822M119.127 60.405L121.505 61.2945M45.9608 53.8822L42.9866 46.1733M45.9608 53.8822V50.3242M45.9608 53.8822L121.504 52.6962M42.9866 42.6154L118.532 43.8014M42.9866 42.6154V34.9065M42.9866 42.6154L45.9608 50.3242M42.9866 42.6154V46.1733M118.532 43.8014V36.0925L42.9866 34.9065M118.532 43.8014L122.67 45.5803M42.9866 34.9065V31.3486M42.9866 34.9065L120.314 36.0925M56.0732 21.2678L118.532 29.5696M56.0732 21.2678V13.559M56.0732 21.2678L42.9866 31.3486M118.532 29.5696V21.8608L56.0732 13.559M118.532 29.5696L123.883 30.7556M56.0732 13.559V10.001M56.0732 13.559L120.314 21.8608M173.259 133.343V136.9H171.474M173.259 133.343H136.378M173.259 133.343L159.574 115.553H148.867M136.378 133.343V136.9H171.474M136.378 133.343V125.478M136.378 133.343L148.867 115.553M204.786 144.016L171.474 145.795M204.786 144.016V144.609M204.786 144.016L169.092 128.006M171.474 145.795V149.353L202.407 147.701M171.474 145.795V136.9M138.163 125.634V122.076M138.163 125.634L136.378 125.478M138.163 125.634L148.867 107.657M138.163 122.076L149.462 103.1M106.041 109.95V105.799M106.041 109.95L140.539 93.0194V88.8684M106.041 105.799L140.539 88.8684M78.0579 93.6123V90.0544M78.0579 90.0544L132.214 76.4157M57.2629 75.2297V71.6718M57.2629 71.6718L123.883 62.184M42.9866 46.1733C42.3907 55.6611 43.9354 78.5505 54.8806 94.2053C68.5622 113.774 103.655 130.378 113.771 135.121C123.886 139.865 158.979 154.69 171.471 158.248M45.9608 50.3242L121.504 49.1383M230.959 155.876L202.407 158.841V155.283M230.959 155.876V154.097M230.959 155.876V162.992M230.959 152.318L202.407 155.283M230.959 152.318V154.097M230.959 152.318L204.786 144.609M202.407 155.283V147.701M248.805 160.027L230.959 166.55V162.992M248.805 160.027V156.469M248.805 160.027V161.806M248.805 156.469L230.959 162.992M248.805 156.469L230.959 154.097M259.512 165.364L248.805 173.073V169.515M259.512 165.364V161.806M259.512 165.364C259.709 172.084 259.985 185.763 259.512 186.711M259.512 161.806L248.805 169.515M259.512 161.806H248.805M248.805 169.515V161.806M164.931 213.989V217.547H155.413M164.931 213.989H153.629M164.931 213.989V206.28M153.629 213.989V217.547H155.413M153.629 213.989L156.6 208.059M172.069 202.129V205.687H163.146V203.908M172.069 202.129H163.146M172.069 202.129L172.664 195.013M163.146 202.129V203.908M163.146 202.129C163.146 201.655 167.507 196.792 169.687 194.42H172.664M172.664 195.013H178.018V191.455M172.664 195.013V194.42M178.018 191.455H172.664M178.018 191.455V188.49M172.664 191.455V194.42M172.664 191.455L178.018 188.49M178.018 184.932H180.992V181.375H178.018M178.018 184.932V181.375M178.018 184.932V188.49M178.018 181.375L181.136 177.224M144.111 229.407H155.413V225.849M144.111 229.407V225.849M144.111 229.407L133.401 211.617V208.059M155.413 225.849H144.111M155.413 225.849V217.547M144.111 225.849L133.401 208.059M137.782 243.761L146.491 243.638V240.08M137.782 243.761V240.203M137.782 243.761L100.089 225.849V222.291M146.491 240.08L137.782 240.203M137.782 240.203L100.089 222.291M129.24 256.684V253.126M129.24 253.126L74.5136 240.203M149.462 103.1V106.658L148.867 107.657M133.401 208.059H156.6M42.9866 31.3486L120.314 32.5346M120.314 36.0925V32.5346M120.314 36.0925L123.883 34.3136V30.7556M120.314 32.5346L123.883 30.7556M56.0732 10.001L120.314 18.3029M56.0732 10.001C56.0732 9.52666 67.9682 4.26883 73.9157 1.69922L129.832 15.3379M120.314 21.8608V18.3029M120.314 21.8608L129.832 18.8959M120.314 18.3029L129.832 15.3379M121.504 52.6962V49.1383M121.504 52.6962L122.693 49.7312L122.67 45.5803M121.504 49.1383C121.504 48.867 121.958 47.5231 122.67 45.5803M129.832 18.8959V15.3379M129.832 18.8959V27.1977C128.521 30.4648 126.591 35.3277 124.919 39.6504M156.6 208.059L158.979 203.908H163.146M171.471 158.248C177.538 164.933 180.177 171.105 181.136 177.224M171.471 158.248C181.584 161.015 205.258 167.499 219.059 171.294C236.31 176.038 255.947 182.561 259.512 186.711M181.136 177.224C181.964 182.503 181.542 187.741 180.992 193.234C180.043 202.722 172.664 215.175 169.687 219.919C168.537 221.75 163.575 228.709 157.916 236.563M157.916 236.563C158.767 236.531 186.934 218.14 194.67 213.989C202.407 209.838 211.326 203.908 233.335 197.978C255.345 192.048 258.921 187.897 259.512 186.711M202.407 147.701L204.786 147.574V144.609M148.867 115.553V107.657M123.883 62.184L121.505 61.2945M121.505 61.2945L124.919 39.6504M124.919 39.6504C124.062 41.8644 123.274 43.9367 122.67 45.5803" stroke="#202020" stroke-width="1.5"/>
</g>
<defs>
<linearGradient id="paint0_linear_8262_1178" x1="164.688" y1="133.487" x2="164.689" y2="133.487" gradientUnits="userSpaceOnUse">
<stop stop-color="#F4C09F"/>
<stop offset="0.1328" stop-color="#F3C7AB"/>
<stop offset="0.3447" stop-color="#F0CEB8"/>
<stop offset="0.5238" stop-color="#F4DCCE"/>
<stop offset="0.6474" stop-color="#F9E5DA"/>
</linearGradient>
<linearGradient id="paint1_linear_8262_1178" x1="164.688" y1="141.47" x2="200.289" y2="141.47" gradientUnits="userSpaceOnUse">
<stop stop-color="#F4C09F"/>
<stop offset="0.1328" stop-color="#F3C7AB"/>
<stop offset="0.3447" stop-color="#F0CEB8"/>
<stop offset="0.5238" stop-color="#F4DCCE"/>
<stop offset="0.6474" stop-color="#F9E5DA"/>
</linearGradient>
<linearGradient id="paint2_linear_8262_1178" x1="155.077" y1="127.239" x2="164.689" y2="127.239" gradientUnits="userSpaceOnUse">
<stop stop-color="#F4C09F"/>
<stop offset="0.1328" stop-color="#F3C7AB"/>
<stop offset="0.3447" stop-color="#F0CEB8"/>
<stop offset="0.5238" stop-color="#F4DCCE"/>
<stop offset="0.6474" stop-color="#F9E5DA"/>
</linearGradient>
<linearGradient id="paint3_linear_8262_1178" x1="124.742" y1="259.749" x2="134.261" y2="259.749" gradientUnits="userSpaceOnUse">
<stop stop-color="#F4C09F"/>
<stop offset="0.1328" stop-color="#F3C7AB"/>
<stop offset="0.3447" stop-color="#F0CEB8"/>
<stop offset="0.5238" stop-color="#F4DCCE"/>
<stop offset="0.6474" stop-color="#F9E5DA"/>
</linearGradient>
<linearGradient id="paint4_linear_8262_1178" x1="197.91" y1="155.384" x2="226.463" y2="155.384" gradientUnits="userSpaceOnUse">
<stop stop-color="#F4C09F"/>
<stop offset="0.1328" stop-color="#F3C7AB"/>
<stop offset="0.3447" stop-color="#F0CEB8"/>
<stop offset="0.5238" stop-color="#F4DCCE"/>
<stop offset="0.6474" stop-color="#F9E5DA"/>
</linearGradient>
<linearGradient id="paint5_linear_8262_1178" x1="166.977" y1="152.122" x2="200.289" y2="152.122" gradientUnits="userSpaceOnUse">
<stop stop-color="#F4C09F"/>
<stop offset="0.1328" stop-color="#F3C7AB"/>
<stop offset="0.3447" stop-color="#F0CEB8"/>
<stop offset="0.5238" stop-color="#F4DCCE"/>
<stop offset="0.6474" stop-color="#F9E5DA"/>
</linearGradient>
<linearGradient id="paint6_linear_8262_1178" x1="226.463" y1="163.982" x2="244.308" y2="163.982" gradientUnits="userSpaceOnUse">
<stop stop-color="#F4C09F"/>
<stop offset="0.1328" stop-color="#F3C7AB"/>
<stop offset="0.3447" stop-color="#F0CEB8"/>
<stop offset="0.5238" stop-color="#F4DCCE"/>
<stop offset="0.6474" stop-color="#F9E5DA"/>
</linearGradient>
<linearGradient id="paint7_linear_8262_1178" x1="244.308" y1="171.098" x2="255.016" y2="171.098" gradientUnits="userSpaceOnUse">
<stop stop-color="#F4C09F"/>
<stop offset="0.1328" stop-color="#F3C7AB"/>
<stop offset="0.3447" stop-color="#F0CEB8"/>
<stop offset="0.5238" stop-color="#F4DCCE"/>
<stop offset="0.6474" stop-color="#F9E5DA"/>
</linearGradient>
<linearGradient id="paint8_linear_8262_1178" x1="197.91" y1="161.017" x2="226.463" y2="161.017" gradientUnits="userSpaceOnUse">
<stop stop-color="#F4C09F"/>
<stop offset="0.1328" stop-color="#F3C7AB"/>
<stop offset="0.3447" stop-color="#F0CEB8"/>
<stop offset="0.5238" stop-color="#F4DCCE"/>
<stop offset="0.6474" stop-color="#F9E5DA"/>
</linearGradient>
<linearGradient id="paint9_linear_8262_1178" x1="139.615" y1="233.065" x2="150.917" y2="233.065" gradientUnits="userSpaceOnUse">
<stop stop-color="#F4C09F"/>
<stop offset="0.1328" stop-color="#F3C7AB"/>
<stop offset="0.3447" stop-color="#F0CEB8"/>
<stop offset="0.5238" stop-color="#F4DCCE"/>
<stop offset="0.6474" stop-color="#F9E5DA"/>
</linearGradient>
<linearGradient id="paint10_linear_8262_1178" x1="244.308" y1="172.877" x2="255.016" y2="172.877" gradientUnits="userSpaceOnUse">
<stop stop-color="#F4C09F"/>
<stop offset="0.1328" stop-color="#F3C7AB"/>
<stop offset="0.3447" stop-color="#F0CEB8"/>
<stop offset="0.5238" stop-color="#F4DCCE"/>
<stop offset="0.6474" stop-color="#F9E5DA"/>
</linearGradient>
<linearGradient id="paint11_linear_8262_1178" x1="149.133" y1="221.205" x2="160.435" y2="221.205" gradientUnits="userSpaceOnUse">
<stop stop-color="#F4C09F"/>
<stop offset="0.1328" stop-color="#F3C7AB"/>
<stop offset="0.3447" stop-color="#F0CEB8"/>
<stop offset="0.5238" stop-color="#F4DCCE"/>
<stop offset="0.6474" stop-color="#F9E5DA"/>
</linearGradient>
<linearGradient id="paint12_linear_8262_1178" x1="128.904" y1="222.391" x2="152.103" y2="222.391" gradientUnits="userSpaceOnUse">
<stop stop-color="#F4C09F"/>
<stop offset="0.1328" stop-color="#F3C7AB"/>
<stop offset="0.3447" stop-color="#F0CEB8"/>
<stop offset="0.5238" stop-color="#F4DCCE"/>
<stop offset="0.6474" stop-color="#F9E5DA"/>
</linearGradient>
<linearGradient id="paint13_linear_8262_1178" x1="164.69" y1="142.36" x2="200.29" y2="142.36" gradientUnits="userSpaceOnUse">
<stop stop-color="#F4C09F"/>
<stop offset="0.1328" stop-color="#F3C7AB"/>
<stop offset="0.3447" stop-color="#F0CEB8"/>
<stop offset="0.5238" stop-color="#F4DCCE"/>
<stop offset="0.6474" stop-color="#F9E5DA"/>
</linearGradient>
<linearGradient id="paint14_linear_8262_1178" x1="131.881" y1="140.559" x2="168.762" y2="140.559" gradientUnits="userSpaceOnUse">
<stop stop-color="#F4C09F"/>
<stop offset="0.1328" stop-color="#F3C7AB"/>
<stop offset="0.3447" stop-color="#F0CEB8"/>
<stop offset="0.5238" stop-color="#F4DCCE"/>
<stop offset="0.6474" stop-color="#F9E5DA"/>
</linearGradient>
<linearGradient id="paint15_linear_8262_1178" x1="226.463" y1="166.948" x2="244.308" y2="166.948" gradientUnits="userSpaceOnUse">
<stop stop-color="#F4C09F"/>
<stop offset="0.1328" stop-color="#F3C7AB"/>
<stop offset="0.3447" stop-color="#F0CEB8"/>
<stop offset="0.5238" stop-color="#F4DCCE"/>
<stop offset="0.6474" stop-color="#F9E5DA"/>
</linearGradient>
<linearGradient id="paint16_linear_8262_1178" x1="70.0164" y1="253.882" x2="124.743" y2="253.882" gradientUnits="userSpaceOnUse">
<stop stop-color="#F4C09F"/>
<stop offset="0.1328" stop-color="#F3C7AB"/>
<stop offset="0.3447" stop-color="#F0CEB8"/>
<stop offset="0.5238" stop-color="#F4DCCE"/>
<stop offset="0.6474" stop-color="#F9E5DA"/>
</linearGradient>
<linearGradient id="paint17_linear_8262_1178" x1="95.5927" y1="236.389" x2="141.994" y2="236.389" gradientUnits="userSpaceOnUse">
<stop stop-color="#F4C09F"/>
<stop offset="0.1328" stop-color="#F3C7AB"/>
<stop offset="0.3447" stop-color="#F0CEB8"/>
<stop offset="0.5238" stop-color="#F4DCCE"/>
<stop offset="0.6474" stop-color="#F9E5DA"/>
</linearGradient>
<linearGradient id="paint18_linear_8262_1178" x1="131.881" y1="129.886" x2="168.762" y2="129.886" gradientUnits="userSpaceOnUse">
<stop stop-color="#F4C09F"/>
<stop offset="0.1328" stop-color="#F3C7AB"/>
<stop offset="0.3447" stop-color="#F0CEB8"/>
<stop offset="0.5238" stop-color="#F4DCCE"/>
<stop offset="0.6474" stop-color="#F9E5DA"/>
</linearGradient>
<linearGradient id="paint19_linear_8262_1178" x1="70.0164" y1="249.372" x2="134.261" y2="249.372" gradientUnits="userSpaceOnUse">
<stop stop-color="#F4C09F"/>
<stop offset="0.1328" stop-color="#F3C7AB"/>
<stop offset="0.3447" stop-color="#F0CEB8"/>
<stop offset="0.5238" stop-color="#F4DCCE"/>
<stop offset="0.6474" stop-color="#F9E5DA"/>
</linearGradient>
<linearGradient id="paint20_linear_8262_1178" x1="95.5927" y1="238.465" x2="133.285" y2="238.465" gradientUnits="userSpaceOnUse">
<stop stop-color="#F4C09F"/>
<stop offset="0.1328" stop-color="#F3C7AB"/>
<stop offset="0.3447" stop-color="#F0CEB8"/>
<stop offset="0.5238" stop-color="#F4DCCE"/>
<stop offset="0.6474" stop-color="#F9E5DA"/>
</linearGradient>
<linearGradient id="paint21_linear_8262_1178" x1="95.5927" y1="244.332" x2="134.261" y2="244.332" gradientUnits="userSpaceOnUse">
<stop stop-color="#F4C09F"/>
<stop offset="0.1328" stop-color="#F3C7AB"/>
<stop offset="0.3447" stop-color="#F0CEB8"/>
<stop offset="0.5238" stop-color="#F4DCCE"/>
<stop offset="0.6474" stop-color="#F9E5DA"/>
</linearGradient>
<linearGradient id="paint22_linear_8262_1178" x1="128.904" y1="230.396" x2="141.994" y2="230.396" gradientUnits="userSpaceOnUse">
<stop stop-color="#F4C09F"/>
<stop offset="0.1328" stop-color="#F3C7AB"/>
<stop offset="0.3447" stop-color="#F0CEB8"/>
<stop offset="0.5238" stop-color="#F4DCCE"/>
<stop offset="0.6474" stop-color="#F9E5DA"/>
</linearGradient>
<linearGradient id="paint23_linear_8262_1178" x1="133.285" y1="247.359" x2="141.994" y2="247.359" gradientUnits="userSpaceOnUse">
<stop stop-color="#F4C09F"/>
<stop offset="0.1328" stop-color="#F3C7AB"/>
<stop offset="0.3447" stop-color="#F0CEB8"/>
<stop offset="0.5238" stop-color="#F4DCCE"/>
<stop offset="0.6474" stop-color="#F9E5DA"/>
</linearGradient>
<linearGradient id="paint24_linear_8262_1178" x1="153.419" y1="202.844" x2="255.015" y2="202.844" gradientUnits="userSpaceOnUse">
<stop stop-color="#F4C09F"/>
<stop offset="0.1328" stop-color="#F3C7AB"/>
<stop offset="0.3447" stop-color="#F0CEB8"/>
<stop offset="0.5238" stop-color="#F4DCCE"/>
<stop offset="0.6474" stop-color="#F9E5DA"/>
</linearGradient>
<linearGradient id="paint25_linear_8262_1178" x1="38.3798" y1="121.881" x2="255.277" y2="121.881" gradientUnits="userSpaceOnUse">
<stop stop-color="#F4C09F"/>
<stop offset="0.1328" stop-color="#F3C7AB"/>
<stop offset="0.3447" stop-color="#F0CEB8"/>
<stop offset="0.5238" stop-color="#F4DCCE"/>
<stop offset="0.6474" stop-color="#F9E5DA"/>
</linearGradient>
<linearGradient id="paint26_linear_8262_1178" x1="128.904" y1="224.17" x2="139.615" y2="224.17" gradientUnits="userSpaceOnUse">
<stop stop-color="#F4C09F"/>
<stop offset="0.1328" stop-color="#F3C7AB"/>
<stop offset="0.3447" stop-color="#F0CEB8"/>
<stop offset="0.5238" stop-color="#F4DCCE"/>
<stop offset="0.6474" stop-color="#F9E5DA"/>
</linearGradient>
<linearGradient id="paint27_linear_8262_1178" x1="70.0164" y1="226.542" x2="177.104" y2="226.542" gradientUnits="userSpaceOnUse">
<stop stop-color="#F4C09F"/>
<stop offset="0.1328" stop-color="#F3C7AB"/>
<stop offset="0.3447" stop-color="#F0CEB8"/>
<stop offset="0.5238" stop-color="#F4DCCE"/>
<stop offset="0.6474" stop-color="#F9E5DA"/>
</linearGradient>
<linearGradient id="paint28_linear_8262_1178" x1="38.488" y1="53.6866" x2="41.4623" y2="53.6866" gradientUnits="userSpaceOnUse">
<stop stop-color="#F4C09F"/>
<stop offset="0.1328" stop-color="#F3C7AB"/>
<stop offset="0.3447" stop-color="#F0CEB8"/>
<stop offset="0.5238" stop-color="#F4DCCE"/>
<stop offset="0.6474" stop-color="#F9E5DA"/>
</linearGradient>
<linearGradient id="paint29_linear_8262_1178" x1="115.817" y1="38.8623" x2="119.386" y2="38.8623" gradientUnits="userSpaceOnUse">
<stop stop-color="#F4C09F"/>
<stop offset="0.1328" stop-color="#F3C7AB"/>
<stop offset="0.3447" stop-color="#F0CEB8"/>
<stop offset="0.5238" stop-color="#F4DCCE"/>
<stop offset="0.6474" stop-color="#F9E5DA"/>
</linearGradient>
<linearGradient id="paint30_linear_8262_1178" x1="38.488" y1="39.1596" x2="115.816" y2="39.1596" gradientUnits="userSpaceOnUse">
<stop stop-color="#F4C09F"/>
<stop offset="0.1328" stop-color="#F3C7AB"/>
<stop offset="0.3447" stop-color="#F0CEB8"/>
<stop offset="0.5238" stop-color="#F4DCCE"/>
<stop offset="0.6474" stop-color="#F9E5DA"/>
</linearGradient>
<linearGradient id="paint31_linear_8262_1178" x1="51.5759" y1="21.3689" x2="115.817" y2="21.3689" gradientUnits="userSpaceOnUse">
<stop stop-color="#F4C09F"/>
<stop offset="0.1328" stop-color="#F3C7AB"/>
<stop offset="0.3447" stop-color="#F0CEB8"/>
<stop offset="0.5238" stop-color="#F4DCCE"/>
<stop offset="0.6474" stop-color="#F9E5DA"/>
</linearGradient>
<linearGradient id="paint32_linear_8262_1178" x1="38.488" y1="32.3399" x2="119.385" y2="32.3399" gradientUnits="userSpaceOnUse">
<stop stop-color="#F4C09F"/>
<stop offset="0.1328" stop-color="#F3C7AB"/>
<stop offset="0.3447" stop-color="#F0CEB8"/>
<stop offset="0.5238" stop-color="#F4DCCE"/>
<stop offset="0.6474" stop-color="#F9E5DA"/>
</linearGradient>
<linearGradient id="paint33_linear_8262_1178" x1="51.5759" y1="27.0029" x2="114.035" y2="27.0029" gradientUnits="userSpaceOnUse">
<stop stop-color="#F4C09F"/>
<stop offset="0.1328" stop-color="#F3C7AB"/>
<stop offset="0.3447" stop-color="#F0CEB8"/>
<stop offset="0.5238" stop-color="#F4DCCE"/>
<stop offset="0.6474" stop-color="#F9E5DA"/>
</linearGradient>
<linearGradient id="paint34_linear_8262_1178" x1="51.5759" y1="15.4391" x2="125.335" y2="15.4391" gradientUnits="userSpaceOnUse">
<stop stop-color="#F4C09F"/>
<stop offset="0.1328" stop-color="#F3C7AB"/>
<stop offset="0.3447" stop-color="#F0CEB8"/>
<stop offset="0.5238" stop-color="#F4DCCE"/>
<stop offset="0.6474" stop-color="#F9E5DA"/>
</linearGradient>
<linearGradient id="paint35_linear_8262_1178" x1="114.63" y1="55.9104" x2="120.421" y2="55.9104" gradientUnits="userSpaceOnUse">
<stop stop-color="#F4C09F"/>
<stop offset="0.1328" stop-color="#F3C7AB"/>
<stop offset="0.3447" stop-color="#F0CEB8"/>
<stop offset="0.5238" stop-color="#F4DCCE"/>
<stop offset="0.6474" stop-color="#F9E5DA"/>
</linearGradient>
<linearGradient id="paint36_linear_8262_1178" x1="115.817" y1="24.0373" x2="125.335" y2="24.0373" gradientUnits="userSpaceOnUse">
<stop stop-color="#F4C09F"/>
<stop offset="0.1328" stop-color="#F3C7AB"/>
<stop offset="0.3447" stop-color="#F0CEB8"/>
<stop offset="0.5238" stop-color="#F4DCCE"/>
<stop offset="0.6474" stop-color="#F9E5DA"/>
</linearGradient>
<linearGradient id="paint37_linear_8262_1178" x1="38.4888" y1="35.0082" x2="125.335" y2="35.0082" gradientUnits="userSpaceOnUse">
<stop stop-color="#F4C09F"/>
<stop offset="0.1328" stop-color="#F3C7AB"/>
<stop offset="0.3447" stop-color="#F0CEB8"/>
<stop offset="0.5238" stop-color="#F4DCCE"/>
<stop offset="0.6474" stop-color="#F9E5DA"/>
</linearGradient>
<linearGradient id="paint38_linear_8262_1178" x1="168.168" y1="198.672" x2="173.521" y2="198.672" gradientUnits="userSpaceOnUse">
<stop stop-color="#F4C09F"/>
<stop offset="0.1328" stop-color="#F3C7AB"/>
<stop offset="0.3447" stop-color="#F0CEB8"/>
<stop offset="0.5238" stop-color="#F4DCCE"/>
<stop offset="0.6474" stop-color="#F9E5DA"/>
</linearGradient>
<linearGradient id="paint39_linear_8262_1178" x1="41.4636" y1="71.4767" x2="119.387" y2="71.4767" gradientUnits="userSpaceOnUse">
<stop stop-color="#F4C09F"/>
<stop offset="0.1328" stop-color="#F3C7AB"/>
<stop offset="0.3447" stop-color="#F0CEB8"/>
<stop offset="0.5238" stop-color="#F4DCCE"/>
<stop offset="0.6474" stop-color="#F9E5DA"/>
</linearGradient>
<linearGradient id="paint40_linear_8262_1178" x1="168.168" y1="195.409" x2="173.521" y2="195.409" gradientUnits="userSpaceOnUse">
<stop stop-color="#F4C09F"/>
<stop offset="0.1328" stop-color="#F3C7AB"/>
<stop offset="0.3447" stop-color="#F0CEB8"/>
<stop offset="0.5238" stop-color="#F4DCCE"/>
<stop offset="0.6474" stop-color="#F9E5DA"/>
</linearGradient>
<linearGradient id="paint41_linear_8262_1178" x1="158.65" y1="203.712" x2="168.168" y2="203.712" gradientUnits="userSpaceOnUse">
<stop stop-color="#F4C09F"/>
<stop offset="0.1328" stop-color="#F3C7AB"/>
<stop offset="0.3447" stop-color="#F0CEB8"/>
<stop offset="0.5238" stop-color="#F4DCCE"/>
<stop offset="0.6474" stop-color="#F9E5DA"/>
</linearGradient>
<linearGradient id="paint42_linear_8262_1178" x1="173.521" y1="188.592" x2="176.496" y2="188.592" gradientUnits="userSpaceOnUse">
<stop stop-color="#F4C09F"/>
<stop offset="0.1328" stop-color="#F3C7AB"/>
<stop offset="0.3447" stop-color="#F0CEB8"/>
<stop offset="0.5238" stop-color="#F4DCCE"/>
<stop offset="0.6474" stop-color="#F9E5DA"/>
</linearGradient>
<linearGradient id="paint43_linear_8262_1178" x1="38.488" y1="44.7926" x2="114.034" y2="44.7926" gradientUnits="userSpaceOnUse">
<stop stop-color="#F4C09F"/>
<stop offset="0.1328" stop-color="#F3C7AB"/>
<stop offset="0.3447" stop-color="#F0CEB8"/>
<stop offset="0.5238" stop-color="#F4DCCE"/>
<stop offset="0.6474" stop-color="#F9E5DA"/>
</linearGradient>
<linearGradient id="paint44_linear_8262_1178" x1="38.4883" y1="51.9077" x2="118.173" y2="51.9077" gradientUnits="userSpaceOnUse">
<stop stop-color="#F4C09F"/>
<stop offset="0.1328" stop-color="#F3C7AB"/>
<stop offset="0.3447" stop-color="#F0CEB8"/>
<stop offset="0.5238" stop-color="#F4DCCE"/>
<stop offset="0.6474" stop-color="#F9E5DA"/>
</linearGradient>
<linearGradient id="paint45_linear_8262_1178" x1="158.65" y1="209.345" x2="167.573" y2="209.345" gradientUnits="userSpaceOnUse">
<stop stop-color="#F4C09F"/>
<stop offset="0.1328" stop-color="#F3C7AB"/>
<stop offset="0.3447" stop-color="#F0CEB8"/>
<stop offset="0.5238" stop-color="#F4DCCE"/>
<stop offset="0.6474" stop-color="#F9E5DA"/>
</linearGradient>
<linearGradient id="paint46_linear_8262_1178" x1="99.7586" y1="127.81" x2="133.666" y2="127.81" gradientUnits="userSpaceOnUse">
<stop stop-color="#F4C09F"/>
<stop offset="0.1328" stop-color="#F3C7AB"/>
<stop offset="0.3447" stop-color="#F0CEB8"/>
<stop offset="0.5238" stop-color="#F4DCCE"/>
<stop offset="0.6474" stop-color="#F9E5DA"/>
</linearGradient>
<linearGradient id="paint47_linear_8262_1178" x1="101.543" y1="104.847" x2="136.042" y2="104.847" gradientUnits="userSpaceOnUse">
<stop stop-color="#F4C09F"/>
<stop offset="0.1328" stop-color="#F3C7AB"/>
<stop offset="0.3447" stop-color="#F0CEB8"/>
<stop offset="0.5238" stop-color="#F4DCCE"/>
<stop offset="0.6474" stop-color="#F9E5DA"/>
</linearGradient>
<linearGradient id="paint48_linear_8262_1178" x1="71.2058" y1="111.37" x2="101.543" y2="111.37" gradientUnits="userSpaceOnUse">
<stop stop-color="#F4C09F"/>
<stop offset="0.1328" stop-color="#F3C7AB"/>
<stop offset="0.3447" stop-color="#F0CEB8"/>
<stop offset="0.5238" stop-color="#F4DCCE"/>
<stop offset="0.6474" stop-color="#F9E5DA"/>
</linearGradient>
<linearGradient id="paint49_linear_8262_1178" x1="99.7586" y1="111.503" x2="136.042" y2="111.503" gradientUnits="userSpaceOnUse">
<stop stop-color="#F4C09F"/>
<stop offset="0.1328" stop-color="#F3C7AB"/>
<stop offset="0.3447" stop-color="#F0CEB8"/>
<stop offset="0.5238" stop-color="#F4DCCE"/>
<stop offset="0.6474" stop-color="#F9E5DA"/>
</linearGradient>
<linearGradient id="paint50_linear_8262_1178" x1="50.9812" y1="93.4171" x2="73.5611" y2="93.4171" gradientUnits="userSpaceOnUse">
<stop stop-color="#F4C09F"/>
<stop offset="0.1328" stop-color="#F3C7AB"/>
<stop offset="0.3447" stop-color="#F0CEB8"/>
<stop offset="0.5238" stop-color="#F4DCCE"/>
<stop offset="0.6474" stop-color="#F9E5DA"/>
</linearGradient>
<linearGradient id="paint51_linear_8262_1178" x1="71.2058" y1="102.179" x2="136.042" y2="102.179" gradientUnits="userSpaceOnUse">
<stop stop-color="#F4C09F"/>
<stop offset="0.1328" stop-color="#F3C7AB"/>
<stop offset="0.3447" stop-color="#F0CEB8"/>
<stop offset="0.5238" stop-color="#F4DCCE"/>
<stop offset="0.6474" stop-color="#F9E5DA"/>
</linearGradient>
<linearGradient id="paint52_linear_8262_1178" x1="131.881" y1="125.939" x2="144.37" y2="125.939" gradientUnits="userSpaceOnUse">
<stop stop-color="#F4C09F"/>
<stop offset="0.1328" stop-color="#F3C7AB"/>
<stop offset="0.3447" stop-color="#F0CEB8"/>
<stop offset="0.5238" stop-color="#F4DCCE"/>
<stop offset="0.6474" stop-color="#F9E5DA"/>
</linearGradient>
<linearGradient id="paint53_linear_8262_1178" x1="133.666" y1="119.804" x2="144.964" y2="119.804" gradientUnits="userSpaceOnUse">
<stop stop-color="#F4C09F"/>
<stop offset="0.1328" stop-color="#F3C7AB"/>
<stop offset="0.3447" stop-color="#F0CEB8"/>
<stop offset="0.5238" stop-color="#F4DCCE"/>
<stop offset="0.6474" stop-color="#F9E5DA"/>
</linearGradient>
<linearGradient id="paint54_linear_8262_1178" x1="99.7586" y1="117.729" x2="144.965" y2="117.729" gradientUnits="userSpaceOnUse">
<stop stop-color="#F4C09F"/>
<stop offset="0.1328" stop-color="#F3C7AB"/>
<stop offset="0.3447" stop-color="#F0CEB8"/>
<stop offset="0.5238" stop-color="#F4DCCE"/>
<stop offset="0.6474" stop-color="#F9E5DA"/>
</linearGradient>
<linearGradient id="paint55_linear_8262_1178" x1="41.4636" y1="73.5519" x2="52.7658" y2="73.5519" gradientUnits="userSpaceOnUse">
<stop stop-color="#F4C09F"/>
<stop offset="0.1328" stop-color="#F3C7AB"/>
<stop offset="0.3447" stop-color="#F0CEB8"/>
<stop offset="0.5238" stop-color="#F4DCCE"/>
<stop offset="0.6474" stop-color="#F9E5DA"/>
</linearGradient>
<linearGradient id="paint56_linear_8262_1178" x1="41.4636" y1="62.3046" x2="114.63" y2="62.3046" gradientUnits="userSpaceOnUse">
<stop stop-color="#F4C09F"/>
<stop offset="0.1328" stop-color="#F3C7AB"/>
<stop offset="0.3447" stop-color="#F0CEB8"/>
<stop offset="0.5238" stop-color="#F4DCCE"/>
<stop offset="0.6474" stop-color="#F9E5DA"/>
</linearGradient>
<linearGradient id="paint57_linear_8262_1178" x1="52.7654" y1="74.1445" x2="119.389" y2="74.1445" gradientUnits="userSpaceOnUse">
<stop stop-color="#F4C09F"/>
<stop offset="0.1328" stop-color="#F3C7AB"/>
<stop offset="0.3447" stop-color="#F0CEB8"/>
<stop offset="0.5238" stop-color="#F4DCCE"/>
<stop offset="0.6474" stop-color="#F9E5DA"/>
</linearGradient>
<linearGradient id="paint58_linear_8262_1178" x1="41.4636" y1="58.7273" x2="114.63" y2="58.7273" gradientUnits="userSpaceOnUse">
<stop stop-color="#F4C09F"/>
<stop offset="0.1328" stop-color="#F3C7AB"/>
<stop offset="0.3447" stop-color="#F0CEB8"/>
<stop offset="0.5238" stop-color="#F4DCCE"/>
<stop offset="0.6474" stop-color="#F9E5DA"/>
</linearGradient>
<linearGradient id="paint59_linear_8262_1178" x1="73.5609" y1="90.4523" x2="127.717" y2="90.4523" gradientUnits="userSpaceOnUse">
<stop stop-color="#F4C09F"/>
<stop offset="0.1328" stop-color="#F3C7AB"/>
<stop offset="0.3447" stop-color="#F0CEB8"/>
<stop offset="0.5238" stop-color="#F4DCCE"/>
<stop offset="0.6474" stop-color="#F9E5DA"/>
</linearGradient>
<linearGradient id="paint60_linear_8262_1178" x1="41.4636" y1="56.9486" x2="117.007" y2="56.9486" gradientUnits="userSpaceOnUse">
<stop stop-color="#F4C09F"/>
<stop offset="0.1328" stop-color="#F3C7AB"/>
<stop offset="0.3447" stop-color="#F0CEB8"/>
<stop offset="0.5238" stop-color="#F4DCCE"/>
<stop offset="0.6474" stop-color="#F9E5DA"/>
</linearGradient>
<linearGradient id="paint61_linear_8262_1178" x1="50.9812" y1="87.19" x2="127.717" y2="87.19" gradientUnits="userSpaceOnUse">
<stop stop-color="#F4C09F"/>
<stop offset="0.1328" stop-color="#F3C7AB"/>
<stop offset="0.3447" stop-color="#F0CEB8"/>
<stop offset="0.5238" stop-color="#F4DCCE"/>
<stop offset="0.6474" stop-color="#F9E5DA"/>
</linearGradient>
<linearGradient id="paint62_linear_8262_1178" x1="117.007" y1="54.576" x2="118.196" y2="54.576" gradientUnits="userSpaceOnUse">
<stop stop-color="#F4C09F"/>
<stop offset="0.1328" stop-color="#F3C7AB"/>
<stop offset="0.3447" stop-color="#F0CEB8"/>
<stop offset="0.5238" stop-color="#F4DCCE"/>
<stop offset="0.6474" stop-color="#F9E5DA"/>
</linearGradient>
<clipPath id="clip0_8262_1178">
<rect width="294" height="269" fill="white"/>
</clipPath>
</defs>
</svg>
